<?xml version="1.0" encoding="utf-8"?>
<?xml-stylesheet type="text/xsl" href="rss1.xsl"?>
<rss version="2.0" xmlns:atom="http://www.w3.org/2005/Atom" xmlns:content="http://purl.org/rss/1.0/modules/content/" xmlns:dc="http://purl.org/dc/elements/1.1/" xmlns:media="http://search.yahoo.com/mrss/">
<channel>
 <title>Getty</title>
 <link>http://www.gettyimg.com/</link>
 <atom:link href="http://www.gettyimg.com/" rel="self" type="application/rss+xml" />

 
                <item>
                <title><![CDATA[【PRORES HD】Giveon - Heartbreak Anniversary [Master ProRes 1080p] - 2021]]></title>
                <link><![CDATA[https://sharemania.us/threads/giveon-heartbreak-anniversary-master-prores-1080p-2021.222711/]]></link>
                <description><![CDATA[<article>
<blockquote class="messageText SelectQuoteContainer ugc baseHtml">
<div style="text-align: center"><img src="https://i.ibb.co/M64MbzS/Giveon-Heartbreak-Anniversary-Master-Pro-Res-1080p-mp4.png" class="bbCodeImage LbImage" alt="[​IMG]" data-url="https://i.ibb.co/M64MbzS/Giveon-Heartbreak-Anniversary-Master-Pro-Res-1080p-mp4.png" style=""> <br>
<br>
<div class="ToggleTriggerAnchor bbCodeSpoilerContainer">
<button type="button" class="button bbCodeSpoilerButton ToggleTrigger Tooltip JsOnly" data-target="> .SpoilerTarget"><span>Spoiler: <span class="SpoilerTitle">Mediainfo</span></span></button>
<div class="SpoilerTarget bbCodeSpoilerText"><b>General</b><br>
Complete name : Giveon - Heartbreak Anniversary [Master ProRes 1080p].mp4<br>
Format : MPEG-4<br>
Format profile : QuickTime<br>
Codec ID : qt 2005.03 (qt )<br>
File size : 4.93 GiB<br>
Duration : 4 min 7 s<br>
Overall bit rate mode : Variable<br>
Overall bit rate : 171 Mb/s<br>
Frame rate : 24.000 FPS<br>
Encoded date : 2021-03-15 22:10:04 UTC<br>
Tagged date : 2021-03-15 22:10:54 UTC<br>
Writing library : Apple QuickTime<br>
TIM : 00:00:00:00<br>
TSC : 24<br>
TSZ : 1<br>
<b><br>
Video</b><br>
ID : 1<br>
Format : ProRes<br>
Format version : Version 0<br>
Format profile : 422 HQ<br>
Codec ID : apch<br>
Duration : 4 min 7 s<br>
Bit rate mode : Variable<br>
Bit rate : 170 Mb/s<br>
Width : 1 920 pixels<br>
Height : 1 080 pixels<br>
Display aspect ratio : 16:9<br>
Frame rate mode : Constant<br>
Frame rate : 24.000 FPS<br>
Color space : YUV<br>
Chroma subsampling : 4:2:2<br>
Scan type : Progressive<br>
Bits/(Pixel*Frame) : 3.414<br>
Stream size : 4.89 GiB (99%)<br>
Writing library : Apple<br>
Language : English<br>
Encoded date : 2021-03-15 22:10:04 UTC<br>
Tagged date : 2021-03-15 22:10:04 UTC<br>
Color primaries : BT.709<br>
Transfer characteristics : BT.709<br>
Matrix coefficients : BT.709<br>
<br>
<b>Audio</b><br>
ID : 2<br>
Format : PCM<br>
Format settings : Little / Signed<br>
Codec ID : sowt<br>
Duration : 4 min 7 s<br>
Bit rate mode : Constant<br>
Bit rate : 1 536 kb/s<br>
Channel(s) : 2 channels<br>
Channel layout : L R<br>
Sampling rate : 48.0 kHz<br>
Bit depth : 16 bits<br>
Stream size : 45.2 MiB (1%)<br>
Language : English<br>
Encoded date : 2021-03-15 22:10:04 UTC<br>
Tagged date : 2021-03-15 22:10:04 UTC<br>
<br>
<b>Other</b><br>
ID : 3<br>
Type : Time code<br>
Format : QuickTime TC<br>
Duration : 4 min 7 s<br>
Frame rate : 24.000 FPS<br>
Time code of first frame : 00:00:00:00<br>
Time code of last frame : 00:04:06:23<br>
Time code, stripped : Yes<br>
Language : English<br>
Encoded date : 2021-03-15 22:10:04 UTC<br>
Tagged date : 2021-03-15 22:10:04 UTC</div>
</div><br>
<div class="bbCodeBlock bbCodeVfcHH HiddenContent">
<div class="attribution type">Hidden Content:</div>
<blockquote>You must reply before you can see the hidden data contained here.</blockquote>
</div></div>
<div class="messageTextEndMarker">&nbsp;</div>
</blockquote>
</article>]]></description>
                <author><![CDATA[von_3649]]></author>
                </item>

                </channel></rss>